<svg xmlns="http://www.w3.org/2000/svg" version="1.1" width="600" height="400">
  <rect x="0" y="0" width="400" height="400" fill="#f7f7f7" stroke="#000" />
  <circle cx="200" cy="200" r="200" fill="#FFEFB3" stroke="#000" />
  <rect x="0" y="0" width="200" height="200" fill="#FFEFB3" stroke="#000" />

  <!-- Draw the approximation boundary -->
  <path d="M0 200 L400 200" stroke="#bbb" stroke-dasharray="5,5" />
  <path d="M200 0 L200 400" stroke="#bbb" stroke-dasharray="5,5" />

  <!-- Draw the quarter circle -->
  <path d="M200 200 L400 200 A200 200 0 0 1 200 400 Z" fill="none" stroke="#D32F2F" />

  <!-- Legend -->
  <text x="410" y="160" font-family="Arial" font-size="14" fill="#333">Legend:</text>

  <rect x="410" y="170" width="12" height="12" fill="#333" />
  <text x="426" y="180" font-family="Arial" font-size="12" fill="#333">Approximation</text>

  <rect x="410" y="190" width="12" height="12" fill="#f7f7f7" stroke="#000" />
  <text x="426" y="200" font-family="Arial" font-size="12" fill="#333">Unit Square</text>

  <rect x="410" y="210" width="12" height="12" fill="#FFEFB3" stroke="#000" />
  <text x="426" y="220" font-family="Arial" font-size="12" fill="#333">Quarter Square</text>

  <rect x="410" y="230" width="12" height="12" fill="none" stroke="#D32F2F" />
  <text x="426" y="240" font-family="Arial" font-size="12" fill="#333">Quarter Circle</text>

  <!-- Random points -->
  <!-- Random points -->
  <g fill="#333333">
    <circle cx="270" cy="90" r="2" />
    <circle cx="170" cy="170" r="2" />
    <circle cx="300" cy="200" r="2" />
    <circle cx="240" cy="290" r="2" />
    <circle cx="100" cy="320" r="2" />
    <circle cx="180" cy="70" r="2" />
    <circle cx="350" cy="140" r="2" />
    <circle cx="320" cy="260" r="2" />
    <circle cx="80" cy="220" r="2" />
    <circle cx="130" cy="340" r="2" />
    <circle cx="250" cy="160" r="2" />
    <circle cx="180" cy="210" r="2" />
    <circle cx="220" cy="330" r="2" />
    <circle cx="280" cy="120" r="2" />
    <circle cx="330" cy="250" r="2" />
    <circle cx="140" cy="180" r="2" />
    <circle cx="310" cy="190" r="2" />
    <circle cx="230" cy="300" r="2" />
    <circle cx="170" cy="240" r="2" />
    <circle cx="200" cy="350" r="2" />
  </g>
</svg>
